<?xml version="1.0" standalone="no"?>
<!DOCTYPE svg PUBLIC "-//W3C//DTD SVG 20010904//EN"
 "http://www.w3.org/TR/2001/REC-SVG-20010904/DTD/svg10.dtd">
<svg version="1.0" xmlns="http://www.w3.org/2000/svg"
 width="512.000000pt" height="512.000000pt" viewBox="0 0 512.000000 512.000000"
 preserveAspectRatio="xMidYMid meet">
<metadata>
Created by potrace 1.11, written by Peter Selinger 2001-2013
</metadata>
<g transform="translate(0.000000,512.000000) scale(0.100000,-0.100000)"
fill="#000000" stroke="none">
<path d="M389 5043 c-126 -135 -233 -278 -348 -466 l-41 -67 0 -252 0 -252 68
134 c37 74 91 172 121 217 29 46 59 106 66 133 7 28 21 62 30 76 28 43 99 111
124 119 13 4 38 21 54 39 l30 31 -22 -37 c-18 -30 -19 -38 -8 -38 28 0 67 -42
80 -87 l14 -46 146 -33 146 -32 168 170 c208 211 374 346 548 445 l40 23 -300
0 -300 0 -18 -50 c-35 -98 -118 -160 -214 -160 -38 0 -50 5 -76 33 -18 18 -37
41 -42 51 -9 16 -35 -6 -219 -189 -115 -114 -206 -200 -203 -191 12 31 178
258 360 494 7 9 -6 12 -61 12 l-70 0 -73 -77z"/>
<path d="M1784 5088 c15 -98 16 -261 1 -369 -12 -90 -108 -526 -119 -536 -1
-1 -58 9 -126 22 -68 14 -164 32 -214 40 -87 14 -199 47 -388 114 -100 36
-382 102 -446 104 -49 2 -72 -18 -72 -64 0 -15 27 -110 60 -212 33 -101 60
-187 60 -191 0 -21 159 -404 223 -536 41 -85 82 -171 90 -191 l15 -37 -127
-42 c-69 -23 -165 -59 -212 -79 -138 -60 -499 -253 -510 -274 -23 -42 -2 -74
84 -126 200 -120 333 -189 404 -207 55 -14 198 -68 222 -83 10 -6 -14 -35 -95
-116 -84 -83 -143 -130 -259 -206 -82 -53 -160 -107 -173 -118 -27 -25 -29
-71 -4 -94 36 -33 391 -207 502 -247 63 -22 121 -44 128 -48 9 -7 8 -32 -8
-122 -26 -139 -47 -203 -116 -349 -87 -184 -79 -196 137 -207 112 -5 158 -3
277 16 79 12 145 20 148 18 2 -3 -7 -33 -21 -67 -30 -77 -79 -314 -70 -341 4
-11 17 -27 30 -36 21 -13 33 -13 116 1 52 9 136 27 187 40 52 14 96 25 98 25
2 0 35 -43 74 -95 77 -102 121 -144 242 -233 l79 -57 -5 -93 -5 -92 49 0 c56
0 56 0 63 102 2 32 6 61 10 64 3 4 25 -5 49 -19 92 -54 144 -62 378 -61 156 1
230 6 268 17 l54 15 -7 -59 -7 -59 99 1 c64 0 91 3 78 9 -11 5 -30 9 -42 9
-20 1 -23 6 -23 45 l0 43 73 27 c89 32 174 88 250 163 55 54 91 103 180 244
l35 56 128 -24 c70 -13 138 -22 151 -18 41 10 49 46 29 133 -23 98 -30 162
-20 162 21 -1 137 -31 209 -55 57 -19 107 -28 184 -32 98 -5 108 -4 134 17 16
12 27 31 27 45 0 13 -27 91 -61 172 -72 174 -119 299 -119 317 0 7 30 23 68
36 55 19 266 117 452 208 31 15 35 22 38 59 l3 42 -108 72 c-196 132 -447 330
-432 342 2 2 40 33 85 69 100 80 152 116 230 157 116 61 499 420 510 477 11
58 -12 69 -179 82 -180 15 -322 42 -452 86 -117 39 -235 91 -235 103 0 5 25
33 56 63 101 100 179 202 349 460 160 242 175 262 316 406 156 158 166 175
133 222 -13 19 -24 22 -87 22 -184 0 -341 -33 -547 -115 -171 -67 -369 -103
-512 -91 l-88 8 0 46 c0 26 5 113 10 194 9 126 17 169 54 300 52 181 72 276
86 417 15 152 18 141 -40 141 -41 0 -50 -3 -50 -18 0 -44 -31 -275 -45 -337
-9 -39 -34 -130 -55 -203 -35 -117 -41 -154 -50 -295 -5 -89 -12 -196 -14
-239 -4 -53 -1 -79 7 -86 15 -12 171 -32 254 -32 82 0 337 44 399 68 27 11 84
34 127 51 43 17 113 40 155 51 77 19 243 42 251 34 2 -2 -23 -30 -56 -62 -118
-114 -178 -191 -340 -437 -168 -254 -274 -388 -402 -506 -39 -37 -71 -73 -71
-82 0 -35 279 -161 466 -210 117 -31 276 -57 352 -57 28 0 52 -4 52 -9 0 -11
-250 -252 -314 -304 -28 -21 -76 -52 -107 -68 -113 -56 -379 -271 -379 -304 0
-45 233 -246 469 -405 l64 -43 -169 -82 c-93 -45 -187 -88 -209 -95 -91 -30
-165 -69 -164 -87 1 -29 81 -258 132 -377 26 -59 47 -113 47 -118 0 -17 -130
3 -224 34 -89 29 -259 60 -282 51 -11 -4 -27 -54 -38 -120 -3 -19 3 -60 15
-99 11 -36 19 -67 17 -69 -3 -3 -181 26 -187 31 -2 2 12 34 32 71 41 79 65
153 103 315 l27 117 51 15 c65 20 135 73 208 160 71 85 92 143 86 236 -9 123
-85 240 -195 302 l-53 30 6 166 c10 308 -8 603 -55 907 -46 297 -63 358 -147
525 -155 306 -454 528 -769 570 -44 6 -97 16 -118 21 -47 12 -305 -5 -410 -27
-86 -18 -260 -86 -335 -131 -79 -48 -276 -216 -334 -286 -27 -32 -62 -84 -77
-116 -40 -79 -135 -314 -154 -381 -30 -106 -65 -336 -76 -500 -6 -91 -17 -213
-23 -272 -11 -103 -6 -212 19 -420 l5 -47 -58 -29 c-129 -66 -204 -179 -212
-318 -4 -73 -1 -88 22 -139 38 -83 172 -216 243 -241 51 -18 54 -21 68 -70 22
-77 21 -81 -27 -87 -24 -2 -120 -17 -215 -32 -148 -23 -186 -26 -266 -18 l-94
8 49 110 c57 124 80 207 109 384 17 102 18 126 7 136 -7 6 -85 38 -173 70
-129 46 -445 196 -445 210 0 2 60 43 133 91 91 61 160 116 222 179 50 50 125
115 168 145 59 41 77 59 75 75 -4 27 -155 101 -323 157 -114 38 -333 145 -425
208 -22 15 -15 20 196 127 201 101 343 159 551 224 40 13 74 28 77 36 6 14
-49 141 -153 357 -83 173 -182 426 -254 649 -48 153 -51 167 -34 167 47 0 303
-67 411 -107 66 -25 174 -57 240 -73 177 -42 512 -104 528 -98 18 7 134 479
154 628 11 85 13 154 8 268 l-7 152 -54 0 -54 0 5 -32z m933 -1028 c26 -5 71
-14 98 -19 224 -42 363 -115 522 -272 83 -82 140 -163 202 -286 63 -126 87
-211 116 -413 14 -102 35 -236 46 -299 13 -77 19 -157 18 -240 -1 -69 2 -166
6 -216 5 -61 0 -181 -14 -370 -29 -395 -38 -468 -78 -655 -83 -396 -101 -443
-258 -695 -106 -169 -157 -231 -239 -290 -76 -54 -129 -77 -266 -117 -97 -28
-120 -31 -301 -35 -126 -4 -215 -1 -249 6 -29 6 -107 38 -175 71 -108 53 -166
92 -282 189 -17 14 -80 92 -140 172 -148 199 -229 361 -278 555 -49 197 -55
247 -65 599 -5 171 -16 364 -24 429 -12 107 -12 138 4 310 10 105 21 238 25
296 12 188 57 382 136 580 83 207 104 241 206 341 175 172 285 245 463 307
146 51 405 77 527 52z m-1406 -2247 c1 -32 0 -94 0 -138 -1 -44 5 -147 14
-230 8 -82 15 -153 15 -158 0 -4 -14 0 -31 9 -80 41 -191 179 -204 253 -10 57
11 143 48 198 32 47 121 123 145 123 8 0 12 -19 13 -57z m2536 10 c74 -55 129
-182 117 -267 -8 -49 -33 -94 -90 -159 -73 -85 -185 -151 -170 -99 21 71 65
441 66 555 0 15 3 16 23 6 12 -6 37 -22 54 -36z m-2422 -850 c10 -27 47 -104
84 -172 36 -69 65 -127 63 -130 -4 -10 -281 -75 -289 -68 -1 1 5 36 12 77 12
62 101 340 110 340 1 0 10 -21 20 -47z"/>
<path d="M1720 3341 c-71 -15 -110 -52 -110 -106 0 -52 59 -128 129 -165 23
-12 22 -13 -45 -49 -194 -102 -310 -311 -290 -523 33 -357 366 -576 724 -478
62 17 99 34 142 67 112 84 192 191 224 302 24 81 22 251 -4 325 -23 67 -75
173 -98 199 -14 16 -7 17 136 17 84 0 152 -2 152 -4 0 -3 -14 -25 -30 -50 -96
-141 -123 -330 -74 -497 16 -54 94 -162 158 -222 121 -112 320 -153 515 -107
198 48 318 162 379 360 27 87 36 202 22 265 -29 131 -142 305 -238 366 l-42
27 54 26 c30 15 69 43 86 62 28 32 31 41 28 91 -3 48 -7 59 -31 77 -25 18 -42
21 -120 20 -77 -1 -128 -11 -309 -57 -268 -70 -352 -81 -593 -81 -173 0 -200
3 -300 28 -60 15 -152 36 -202 46 -51 11 -110 28 -130 39 -49 24 -89 31 -133
22z m103 -82 c37 -18 199 -58 417 -104 113 -23 254 -27 425 -11 203 19 228 24
518 100 99 26 159 36 212 36 71 0 75 -1 81 -25 9 -35 -17 -70 -74 -99 -44 -22
-379 -104 -572 -141 -254 -47 -661 -14 -976 81 -110 33 -201 112 -175 151 24
36 85 41 144 12z m1503 -243 c102 -47 187 -149 240 -288 24 -65 26 -79 21
-167 -9 -152 -54 -258 -146 -345 -62 -57 -130 -89 -236 -111 -92 -19 -213 -13
-286 15 -100 37 -206 133 -260 233 -30 57 -33 71 -37 174 -4 93 -1 123 16 180
23 74 106 203 145 225 26 15 418 105 462 107 17 0 53 -10 81 -23z m-1251 -35
c105 -22 198 -42 208 -46 27 -11 92 -108 129 -193 31 -73 33 -83 33 -198 0
-119 0 -120 -39 -199 -44 -88 -145 -199 -215 -234 -95 -49 -242 -63 -359 -36
-197 47 -327 194 -362 409 -35 218 105 437 328 513 37 12 72 23 77 23 6 0 96
-18 200 -39z"/>
<path d="M3076 2627 c-18 -20 -44 -37 -57 -39 -31 -4 -38 -41 -10 -60 11 -8
19 -22 18 -32 -3 -31 26 -41 63 -23 25 13 36 14 46 6 8 -6 21 -8 30 -5 13 5
14 14 9 49 -4 23 -10 47 -14 52 -3 6 -6 26 -6 45 0 51 -35 54 -79 7z"/>
<path d="M1860 2620 c-13 -8 -13 -15 2 -56 15 -41 15 -50 3 -68 -16 -22 -4
-46 22 -46 7 0 25 -7 39 -16 24 -16 26 -16 56 14 23 24 29 38 24 56 -3 14 -2
28 4 31 5 3 10 18 10 32 0 25 -2 25 -47 20 -41 -4 -49 -2 -66 19 -20 27 -25
28 -47 14z"/>
<path d="M2364 2082 c-30 -19 -38 -60 -38 -177 0 -110 3 -127 31 -202 48 -127
103 -197 162 -209 28 -6 36 -2 74 37 45 48 99 165 123 267 16 67 18 229 4 267
-8 21 -16 26 -38 23 -24 -3 -27 -7 -25 -38 7 -106 3 -202 -11 -256 -28 -109
-93 -234 -121 -234 -23 0 -76 87 -107 174 -31 91 -38 209 -16 291 11 39 10 48
-2 55 -18 12 -22 12 -36 2z"/>
<path d="M3495 1934 c-102 -73 -127 -81 -282 -88 -168 -9 -196 -3 -278 59 -33
25 -67 45 -76 45 -23 0 -33 -52 -13 -65 8 -5 38 -27 65 -47 73 -55 102 -60
289 -56 163 3 167 4 230 35 78 38 150 90 150 107 0 7 -8 20 -18 29 -17 15 -21
14 -67 -19z"/>
<path d="M1545 1923 c-7 -30 1 -39 90 -92 64 -38 272 -76 381 -69 106 7 172
61 110 89 -19 9 -29 8 -47 -5 -32 -22 -136 -21 -271 3 -92 17 -115 25 -167 60
-70 48 -86 50 -96 14z"/>
<path d="M3305 1313 c-5 -22 -2 -31 16 -43 52 -34 86 -71 112 -122 34 -66 35
-117 5 -146 -29 -26 -117 -70 -157 -78 -27 -6 -31 -11 -31 -39 l0 -32 49 8
c54 8 95 27 158 72 97 69 97 173 -2 307 -35 47 -102 100 -129 100 -7 0 -17
-12 -21 -27z"/>
<path d="M1674 1214 c-81 -93 -107 -140 -112 -198 -4 -45 -1 -56 22 -83 27
-32 155 -87 234 -99 38 -6 42 -5 42 14 0 34 -11 52 -34 53 -43 1 -169 55 -189
81 -19 26 -19 26 4 73 13 26 47 73 76 104 29 31 52 61 53 67 0 11 -31 44 -42
44 -3 0 -27 -25 -54 -56z"/>
<path d="M2525 1224 c-66 -4 -220 -20 -335 -36 -70 -9 -347 -104 -376 -129
-10 -8 -10 -16 -2 -35 6 -13 16 -24 21 -24 6 0 72 25 149 55 80 32 167 59 206
64 270 38 549 48 707 25 125 -18 335 -71 356 -90 8 -8 32 -14 53 -14 34 0 37
2 30 23 -10 35 -34 56 -73 67 -20 5 -76 21 -126 34 -174 49 -410 72 -610 60z"/>
<path d="M2240 5111 c0 -5 7 -15 17 -22 29 -25 294 -360 337 -428 24 -36 69
-112 102 -168 73 -128 81 -130 152 -34 68 90 203 241 281 314 35 32 131 112
214 178 84 66 166 131 182 144 l30 24 -83 0 -83 1 -102 -82 c-229 -183 -272
-225 -478 -461 l-25 -30 -73 118 c-40 65 -133 194 -208 287 l-135 168 -64 0
c-35 0 -64 -4 -64 -9z"/>
<path d="M2586 5106 c-127 -24 -67 -31 267 -30 299 1 336 3 360 19 15 9 27 19
27 21 0 10 -600 0 -654 -10z"/>
<path d="M3996 4939 c-12 -61 -8 -76 24 -89 17 -7 29 -15 26 -17 -2 -3 -14 1
-26 7 -12 6 -24 9 -26 7 -3 -3 30 -24 73 -48 108 -58 263 -162 315 -210 l43
-40 -59 31 c-60 31 -126 39 -156 20 -18 -11 -23 -6 105 -105 55 -43 138 -110
183 -149 46 -39 87 -71 90 -71 4 1 41 7 84 14 75 13 76 14 83 47 9 48 49 92
88 96 l32 3 -110 110 c-131 132 -278 244 -377 290 -67 30 -359 135 -378 135
-4 0 -10 -14 -14 -31z"/>
<path d="M2759 4763 c5 -10 17 -27 25 -38 16 -20 16 -20 41 10 14 17 25 33 25
38 0 4 -23 7 -50 7 -45 0 -50 -2 -41 -17z"/>
<path d="M3927 4592 c-2 -4 -7 -19 -11 -34 -8 -34 16 -43 82 -33 44 7 45 8 27
22 -35 26 -94 53 -98 45z"/>
<path d="M1568 4437 c-120 -83 -145 -106 -130 -116 21 -13 154 -33 162 -24 9
10 52 184 47 189 -2 2 -37 -20 -79 -49z"/>
<path d="M3880 4416 c0 -9 17 -24 38 -34 58 -28 133 -74 129 -78 -2 -3 -40 14
-83 36 -43 22 -83 40 -89 40 -5 -1 9 -10 33 -22 23 -11 64 -39 90 -62 26 -23
80 -68 120 -100 l73 -59 38 13 c22 7 45 16 52 21 18 11 10 16 -151 122 -183
121 -250 153 -250 123z"/>
<path d="M208 4293 c-62 -110 -109 -204 -162 -326 l-46 -105 0 -456 c0 -251 3
-456 6 -456 3 0 61 29 129 65 l123 65 7 58 c3 31 16 100 27 152 11 52 31 152
43 223 21 111 32 144 85 254 l61 126 -70 216 c-65 205 -71 216 -99 228 -17 7
-33 17 -37 23 -12 20 -24 9 -67 -67z"/>
<path d="M5080 4324 c1 -12 39 -61 40 -51 0 5 -9 20 -20 34 -11 14 -20 22 -20
17z"/>
<path d="M5090 4089 c0 -7 -54 -67 -119 -133 l-120 -121 40 -45 c105 -119 173
-238 199 -347 13 -57 9 -73 -21 -73 -27 0 -24 -23 16 -105 l34 -70 0 438 c1
377 -1 440 -14 453 -10 11 -15 12 -15 3z"/>
<path d="M4727 3687 c-3 -8 22 -56 54 -108 125 -197 221 -411 295 -654 l43
-140 0 90 c1 147 -47 290 -170 508 -67 118 -198 317 -209 317 -4 0 -10 -6 -13
-13z"/>
<path d="M4646 3561 c-25 -40 -46 -74 -46 -76 0 -3 16 -30 36 -61 54 -85 137
-261 175 -373 l33 -99 41 -5 c22 -3 44 -2 48 2 5 5 2 32 -7 60 -19 64 -5 57
31 -15 14 -30 30 -54 36 -54 5 0 7 6 4 13 -3 7 -21 61 -40 119 -62 185 -168
414 -243 526 l-22 34 -46 -71z"/>
<path d="M616 3458 c-37 -106 -67 -223 -59 -232 3 -2 17 0 32 5 26 9 29 16 45
117 20 121 19 111 17 135 -2 30 -19 18 -35 -25z"/>
<path d="M4552 3418 c-7 -13 -19 -33 -28 -45 -15 -22 -15 -23 7 -31 72 -27 69
-29 54 33 -15 67 -18 72 -33 43z"/>
<path d="M4403 3202 c-12 -15 -43 -49 -67 -76 -25 -27 -43 -53 -40 -57 5 -10
233 -83 239 -77 6 5 -97 237 -105 238 -3 0 -15 -13 -27 -28z"/>
<path d="M4650 2970 c8 -5 24 -9 35 -9 l20 0 -20 9 c-11 5 -27 9 -35 9 -13 1
-13 0 0 -9z"/>
<path d="M0 2375 l0 -285 30 -61 c44 -92 52 -98 66 -58 15 40 16 157 7 437
l-6 203 -42 25 c-23 13 -45 24 -48 24 -4 0 -7 -128 -7 -285z"/>
<path d="M4873 2494 l-123 -116 0 -98 c0 -54 -6 -131 -14 -172 -15 -78 -63
-208 -76 -208 -11 0 -33 72 -65 213 -31 133 -23 128 -113 74 -98 -59 -122 -84
-122 -127 0 -33 5 -42 43 -70 l42 -31 7 23 c3 13 7 43 8 68 l3 45 7 -50 c4
-27 5 -62 3 -76 -5 -28 14 -44 213 -179 101 -69 117 -89 122 -160 5 -76 -18
-115 -92 -156 -55 -30 -60 -36 -95 -115 -20 -46 -56 -116 -79 -155 -34 -58
-122 -293 -122 -326 0 -20 19 -3 66 60 141 185 285 450 358 657 67 190 125
459 127 586 0 24 4 62 9 84 6 27 7 -3 4 -95 -14 -375 -96 -706 -248 -1007 -59
-117 -177 -308 -201 -325 -5 -4 -7 -10 -3 -13 4 -4 15 6 24 22 10 15 21 30 25
33 19 16 132 202 180 297 158 313 244 660 256 1033 6 182 -3 400 -15 400 -4 0
-62 -52 -129 -116z"/>
<path d="M160 2565 c0 -57 63 -415 77 -438 2 -4 23 4 46 18 23 14 48 29 55 33
10 7 9 21 -4 73 -9 35 -24 106 -33 157 l-16 93 -63 34 c-34 19 -62 33 -62 30z"/>
<path d="M393 2418 c3 -12 11 -56 18 -95 8 -49 17 -73 26 -73 24 0 26 28 7
107 -15 60 -23 79 -38 81 -15 3 -18 -1 -13 -20z"/>
<path d="M540 2380 c0 -13 5 -20 13 -17 6 2 12 10 12 17 0 7 -6 15 -12 18 -8
2 -13 -5 -13 -18z"/>
<path d="M3 1815 l3 -110 63 -130 c90 -185 240 -434 291 -485 3 -3 27 -32 55
-65 71 -86 134 -154 264 -285 l115 -115 6 40 c7 47 32 97 61 123 18 18 18 20
3 26 -9 4 -56 10 -103 15 -100 11 -128 20 -158 52 -47 51 -54 110 -23 188 l19
49 -28 39 c-92 129 -203 350 -252 501 -12 39 -28 72 -35 72 -8 0 0 -30 23 -87
74 -183 94 -251 100 -338 4 -58 3 -85 -5 -85 -10 0 -69 94 -183 290 -24 41
-83 152 -131 245 l-89 170 4 -110z"/>
<path d="M420 1654 c0 -16 180 -263 236 -323 l32 -35 12 41 c12 40 12 40 -57
144 -66 101 -71 105 -143 141 -82 41 -80 40 -80 32z"/>
<path d="M4385 1319 c-105 -52 -115 -70 -80 -146 l26 -57 23 35 c25 37 120
209 114 208 -1 0 -39 -18 -83 -40z"/>
<path d="M5059 1063 l-46 -4 -43 -102 c-90 -215 -232 -443 -365 -585 -22 -24
-41 -48 -43 -53 -6 -14 -22 -10 -22 5 0 8 -11 27 -24 43 l-24 27 -192 -194
-192 -195 125 -3 125 -3 63 63 c201 201 365 411 516 663 68 113 187 346 176
343 -5 -1 -29 -3 -54 -5z"/>
<path d="M1065 831 c-16 -3 -29 -11 -29 -16 2 -12 72 -70 78 -64 2 2 7 23 11
47 7 46 5 47 -60 33z"/>
<path d="M4505 800 c-3 -6 1 -7 9 -4 18 7 21 14 7 14 -6 0 -13 -4 -16 -10z"/>
<path d="M3893 713 c3 -10 8 -31 12 -47 l6 -29 30 29 c16 15 29 30 29 34 0 6
-59 30 -74 30 -4 0 -5 -8 -3 -17z"/>
<path d="M1062 548 c-12 -14 -34 -25 -86 -42 -14 -5 5 -18 75 -52 157 -76 358
-135 457 -133 32 0 34 2 15 9 -12 5 -31 18 -42 29 -11 11 -39 30 -63 42 -40
20 -48 21 -113 11 -121 -20 -192 15 -217 106 -11 39 -15 43 -26 30z"/>
<path d="M3529 474 c-27 -33 -51 -76 -45 -82 3 -3 -1 -14 -11 -24 -9 -10 -13
-18 -8 -18 18 0 204 115 197 122 -4 4 -32 10 -62 14 -46 5 -57 3 -71 -12z"/>
<path d="M1545 461 c-18 -7 -15 -11 23 -30 46 -24 50 -22 26 14 -18 27 -19 27
-49 16z"/>
<path d="M4434 413 c-11 -16 -24 -35 -29 -43 -7 -12 -6 -13 6 -3 14 11 53 73
46 73 -2 0 -12 -12 -23 -27z"/>
<path d="M3500 194 c-58 -29 -147 -68 -197 -86 -51 -18 -93 -36 -93 -40 0 -18
71 -5 142 26 68 30 258 141 258 152 0 5 13 11 -110 -52z"/>
<path d="M1738 63 c6 -2 18 -2 25 0 6 3 1 5 -13 5 -14 0 -19 -2 -12 -5z"/>
</g>
</svg>
